<svg width="291" height="87" viewBox="0 0 291 87" fill="none" xmlns="http://www.w3.org/2000/svg">
<path d="M279.234 84.3229H10.9219C5.48438 84.3229 1.07812 79.9167 1.07812 74.4792V10.9167C1.07812 5.47916 5.48438 1.07291 10.9219 1.07291H279.234C284.672 1.07291 289.078 5.47916 289.078 10.9167V74.4792C289.078 79.9167 284.672 84.3229 279.234 84.3229Z" fill="black"/>
<mask id="mask0_44_1998" style="mask-type:luminance" maskUnits="userSpaceOnUse" x="0" y="0" width="291" height="87">
<path d="M0 0H290.146V86.6667H0V0Z" fill="white"/>
</mask>
<g mask="url(#mask0_44_1998)">
<path d="M10.9167 2.15103C6.08333 2.15103 2.15104 6.08332 2.15104 10.9167V74.4792C2.15104 79.3125 6.08333 83.2448 10.9167 83.2448H279.234C284.068 83.2448 288 79.3125 288 74.4792V10.9167C288 6.08332 284.068 2.15103 279.234 2.15103H10.9167ZM279.234 85.401H10.9167C4.89583 85.401 0 80.5 0 74.4792V10.9167C0 4.89582 4.89583 -0.00521851 10.9167 -0.00521851H279.234C285.255 -0.00521851 290.151 4.89582 290.151 10.9167V74.4792C290.151 80.5 285.255 85.401 279.234 85.401Z" fill="#A7A9AB"/>
</g>
<path d="M100.614 22.3489L99.5103 18.8906C99.2394 18.0364 99.0103 17.0833 98.8019 16.2708H98.7603C98.5571 17.0833 98.3436 18.0573 98.0988 18.8906L97.0155 22.3489H100.614ZM96.5988 24.2812L95.3905 28.2604H92.7446L97.2446 14.2292H100.51L105.068 28.2604H102.323L101.052 24.2812" fill="white"/>
<path d="M108.896 18.125L110.542 23.2604C110.833 24.1562 111.036 24.9688 111.224 25.8021H111.286C111.474 24.9688 111.703 24.1771 111.974 23.2604L113.599 18.125H116.281L112.411 28.2604H109.896L106.125 18.125" fill="white"/>
<path d="M124.005 23.3021C122.193 23.2812 120.464 23.6562 120.464 25.1979C120.464 26.1979 121.11 26.6562 121.922 26.6562C122.958 26.6562 123.693 25.9896 123.938 25.2604C124.005 25.0729 124.005 24.8854 124.005 24.6979V23.3021ZM126.5 25.8229C126.5 26.7396 126.542 27.6354 126.667 28.2552H124.354L124.172 27.1354H124.104C123.505 27.9219 122.443 28.4844 121.11 28.4844C119.068 28.4844 117.927 27.0104 117.927 25.4687C117.927 22.9271 120.193 21.6198 123.938 21.6406V21.4739C123.938 20.8073 123.672 19.7031 121.88 19.7031C120.88 19.7031 119.839 20.0156 119.151 20.4531L118.651 18.7864C119.401 18.3281 120.714 17.8958 122.318 17.8958C125.563 17.8958 126.5 19.9531 126.5 22.1823" fill="white"/>
<path d="M130.12 18.125H132.677V28.2604H130.12V18.125ZM131.386 16.6667C130.537 16.6667 129.974 16.0417 129.974 15.2917C129.974 14.5 130.552 13.8958 131.412 13.8958C132.281 13.8958 132.823 14.5 132.844 15.2917C132.844 16.0417 132.281 16.6667 131.412 16.6667" fill="white"/>
<path d="M136.359 28.2604H138.922V13.4583H136.359V28.2604Z" fill="white"/>
<path d="M147.995 23.3021C146.182 23.2812 144.453 23.6562 144.453 25.1979C144.453 26.1979 145.099 26.6562 145.911 26.6562C146.953 26.6562 147.682 25.9896 147.932 25.2604C147.995 25.0729 147.995 24.8854 147.995 24.6979V23.3021ZM150.489 25.8229C150.489 26.7396 150.531 27.6354 150.656 28.2552H148.349L148.161 27.1354H148.099C147.495 27.9219 146.432 28.4844 145.099 28.4844C143.062 28.4844 141.917 27.0104 141.917 25.4687C141.917 22.9271 144.187 21.6198 147.932 21.6406V21.4739C147.932 20.8073 147.661 19.7031 145.87 19.7031C144.87 19.7031 143.828 20.0156 143.146 20.4531L142.646 18.7864C143.396 18.3281 144.703 17.8958 146.307 17.8958C149.552 17.8958 150.489 19.9531 150.489 22.1823" fill="white"/>
<path d="M156.672 24.0729C156.672 24.2813 156.693 24.4896 156.734 24.6771C157.005 25.7188 157.901 26.4688 159 26.4688C160.604 26.4688 161.583 25.1979 161.583 23.1406C161.583 21.349 160.729 19.8906 159.021 19.8906C157.979 19.8906 157.026 20.6406 156.755 21.7656C156.713 21.9531 156.672 22.1823 156.672 22.4323V24.0729ZM154.109 13.4583H156.672V19.5156H156.713C157.338 18.5365 158.437 17.8958 159.958 17.8958C162.437 17.8958 164.203 19.9531 164.182 23.0365C164.182 26.6771 161.875 28.4896 159.583 28.4896C158.271 28.4896 157.109 27.9896 156.38 26.7396H156.338L156.213 28.2604H154.026C154.068 27.5729 154.109 26.4479 154.109 25.4271" fill="white"/>
<path d="M167.198 28.2604H169.755V13.4583H167.198V28.2604Z" fill="white"/>
<path d="M179.724 22.1198C179.745 21.1823 179.328 19.6406 177.625 19.6406C176.042 19.6406 175.375 21.0781 175.271 22.1198H179.724ZM175.271 23.9062C175.333 25.7396 176.771 26.5312 178.396 26.5312C179.578 26.5312 180.411 26.3437 181.203 26.0729L181.578 27.8177C180.703 28.1979 179.495 28.4635 178.042 28.4635C174.75 28.4635 172.812 26.4479 172.812 23.3489C172.812 20.5364 174.521 17.8958 177.771 17.8958C181.057 17.8958 182.141 20.5989 182.141 22.8281C182.141 23.3073 182.099 23.6823 182.057 23.9062" fill="white"/>
<path d="M194.854 26.6354C196.307 26.6354 197.328 25.2187 197.328 23.1614C197.328 21.5781 196.62 19.7448 194.875 19.7448C193.063 19.7448 192.333 21.5156 192.333 23.2031C192.333 25.1562 193.313 26.6354 194.828 26.6354H194.854ZM194.771 28.4896C191.917 28.4896 189.693 26.5312 189.693 23.2656C189.693 19.9323 191.875 17.8958 194.938 17.8958C197.953 17.8958 199.974 20.0156 199.974 23.0989C199.974 26.8229 197.349 28.4896 194.792 28.4896" fill="white"/>
<path d="M202.984 21.1406C202.984 19.9739 202.948 18.9948 202.906 18.1198H205.13L205.255 19.6406H205.318C205.776 18.8489 206.88 17.8958 208.568 17.8958C210.333 17.8958 212.167 19.0364 212.167 22.2448V28.2552H209.604V22.5364C209.604 21.0781 209.063 19.9739 207.672 19.9739C206.651 19.9739 205.943 20.7031 205.672 21.4739C205.589 21.6823 205.547 21.9948 205.547 22.2864V28.2552H202.984" fill="white"/>
<path d="M223.964 15.5208V18.1198H226.396V20.0365H223.964V24.4896C223.964 25.7396 224.297 26.3646 225.271 26.3646C225.729 26.3646 225.979 26.3438 226.271 26.2604L226.313 28.1927C225.938 28.3438 225.25 28.4636 224.458 28.4636C223.505 28.4636 222.735 28.1511 222.255 27.6354C221.693 27.0521 221.443 26.1146 221.443 24.7813V20.0365H220.005V18.1198H221.443V16.2292" fill="white"/>
<path d="M229.245 13.4583H231.807V19.4948H231.849C232.161 19.0156 232.599 18.6198 233.12 18.349C233.64 18.0625 234.239 17.8958 234.885 17.8958C236.614 17.8958 238.422 19.0365 238.422 22.2865V28.2604H235.864V22.5573C235.864 21.099 235.323 19.974 233.906 19.974C232.911 19.974 232.203 20.6406 231.911 21.4115C231.828 21.6406 231.807 21.9115 231.807 22.1823V28.2604H229.245" fill="white"/>
<path d="M248.328 22.1198C248.349 21.1823 247.932 19.6406 246.224 19.6406C244.64 19.6406 243.979 21.0781 243.875 22.1198H248.328ZM243.875 23.9062C243.937 25.7396 245.37 26.5312 246.995 26.5312C248.182 26.5312 249.015 26.3437 249.802 26.0729L250.182 27.8177C249.307 28.1979 248.099 28.4635 246.64 28.4635C243.354 28.4635 241.417 26.4479 241.417 23.3489C241.417 20.5364 243.125 17.8958 246.37 17.8958C249.656 17.8958 250.739 20.5989 250.739 22.8281C250.739 23.3073 250.698 23.6823 250.656 23.9062" fill="white"/>
<path d="M64.7554 41.8646C64.6877 34.9219 70.4377 31.5417 70.7033 31.3854C67.4481 26.6354 62.4012 25.9896 60.6252 25.9375C56.3908 25.4948 52.2814 28.4792 50.1252 28.4792C47.922 28.4792 44.5939 25.9844 41.0158 26.0573C36.4012 26.1302 32.0887 28.8021 29.7241 32.9427C24.8491 41.3958 28.4845 53.8125 33.1616 60.6458C35.5054 63.9896 38.2345 67.7292 41.8127 67.5938C45.3127 67.4479 46.6199 65.3646 50.8439 65.3646C55.0314 65.3646 56.2606 67.5938 59.9116 67.5104C63.6668 67.4479 66.0314 64.151 68.2866 60.7708C70.9949 56.9375 72.0783 53.1615 72.1199 52.9687C72.0314 52.9375 64.8283 50.1875 64.7554 41.8646Z" fill="white"/>
<path d="M57.8593 21.4479C59.7395 19.0937 61.0364 15.8854 60.6718 12.6354C57.9478 12.7604 54.5416 14.5208 52.578 16.8229C50.8437 18.8542 49.2864 22.1823 49.6926 25.3073C52.7551 25.5364 55.8957 23.7656 57.8593 21.4479Z" fill="white"/>
<path d="M106.995 55.1198L104.578 47.6563C104.323 46.8958 103.844 45.099 103.135 42.2761H103.052C102.771 43.4896 102.313 45.2865 101.693 47.6563L99.3177 55.1198H106.995ZM115.349 67.0417H110.469L107.797 58.6458H98.5156L95.9688 67.0417H91.2188L100.427 38.4583H106.104" fill="white"/>
<path d="M134.349 56.6511C134.349 54.6406 133.896 52.9896 132.989 51.6875C132 50.3333 130.672 49.6511 129.005 49.6511C127.875 49.6511 126.844 50.0313 125.932 50.7761C125.015 51.5313 124.411 52.5104 124.125 53.7292C123.984 54.2917 123.917 54.7552 123.917 55.1198V58.5573C123.917 60.0573 124.375 61.3229 125.292 62.3542C126.213 63.3906 127.406 63.9011 128.875 63.9011C130.604 63.9011 131.948 63.2396 132.901 61.9063C133.87 60.5781 134.349 58.8281 134.349 56.6511ZM139.015 56.4792C139.015 59.9844 138.068 62.7604 136.172 64.7917C134.474 66.6042 132.364 67.5052 129.854 67.5052C127.135 67.5052 125.187 66.5261 124 64.5781H123.917V75.4375H119.333V53.2136C119.333 51.0104 119.281 48.75 119.167 46.4271H123.193L123.448 49.6979H123.536C125.062 47.2344 127.38 46.0052 130.489 46.0052C132.917 46.0052 134.953 46.9688 136.573 48.8906C138.198 50.8177 139.015 53.3438 139.015 56.4792Z" fill="white"/>
<path d="M158.052 56.6511C158.052 54.6406 157.599 52.9896 156.693 51.6875C155.703 50.3333 154.375 49.6511 152.708 49.6511C151.578 49.6511 150.552 50.0313 149.635 50.7761C148.714 51.5313 148.12 52.5104 147.839 53.7292C147.693 54.2917 147.625 54.7552 147.625 55.1198V58.5573C147.625 60.0573 148.078 61.3229 148.995 62.3542C149.917 63.3906 151.109 63.9011 152.583 63.9011C154.307 63.9011 155.651 63.2396 156.609 61.9063C157.568 60.5781 158.052 58.8281 158.052 56.6511ZM162.714 56.4792C162.714 59.9844 161.771 62.7604 159.875 64.7917C158.177 66.6042 156.073 67.5052 153.557 67.5052C150.844 67.5052 148.896 66.5261 147.703 64.5781H147.625V75.4375H143.042V53.2136C143.042 51.0104 142.984 48.75 142.875 46.4271H146.901L147.156 49.6979H147.245C148.766 47.2344 151.083 46.0052 154.193 46.0052C156.625 46.0052 158.651 46.9688 160.281 48.8906C161.906 50.8177 162.714 53.3438 162.714 56.4792Z" fill="white"/>
<path d="M189.224 59.026C189.224 61.4531 188.38 63.4323 186.682 64.9635C184.818 66.6302 182.229 67.4635 178.901 67.4635C175.823 67.4635 173.354 66.8698 171.484 65.6823L172.547 61.8698C174.563 63.0833 176.766 63.6875 179.172 63.6875C180.896 63.6875 182.24 63.3021 183.203 62.526C184.161 61.7448 184.641 60.7031 184.641 59.401C184.641 58.2448 184.25 57.2604 183.458 56.4688C182.667 55.6771 181.349 54.9427 179.51 54.2604C174.505 52.3906 172.005 49.6563 172.005 46.0625C172.005 43.7135 172.88 41.7865 174.635 40.2865C176.385 38.7865 178.719 38.0312 181.63 38.0312C184.234 38.0312 186.396 38.4896 188.12 39.3906L186.974 43.125C185.365 42.25 183.542 41.8073 181.505 41.8073C179.891 41.8073 178.635 42.2031 177.734 42.9948C176.974 43.7031 176.589 44.5677 176.589 45.5833C176.589 46.7135 177.021 47.6458 177.901 48.3802C178.661 49.0573 180.047 49.7917 182.057 50.5885C184.516 51.5781 186.323 52.7344 187.484 54.0625C188.641 55.3906 189.224 57.0469 189.224 59.026Z" fill="white"/>
<path d="M204.359 49.8646H199.312V59.8698C199.312 62.4167 200.203 63.6875 201.989 63.6875C202.802 63.6875 203.484 63.6198 204.021 63.4792L204.146 66.9531C203.25 67.2969 202.057 67.4635 200.588 67.4635C198.781 67.4635 197.364 66.9115 196.344 65.8125C195.328 64.7083 194.818 62.8542 194.818 60.2552V49.8646H191.807V46.4271H194.818V42.6562L199.312 41.2969V46.4271H204.359" fill="white"/>
<path d="M222.385 56.7136C222.385 54.8125 221.974 53.1875 221.151 51.8229C220.198 50.1771 218.823 49.3542 217.042 49.3542C215.203 49.3542 213.802 50.1771 212.844 51.8229C212.021 53.1875 211.62 54.8438 211.62 56.8021C211.62 58.7031 212.021 60.3281 212.844 61.6875C213.833 63.3333 215.219 64.1563 217.005 64.1563C218.75 64.1563 220.125 63.3229 221.115 61.6458C221.964 60.2604 222.385 58.6146 222.385 56.7136ZM227.135 56.5677C227.135 59.7344 226.234 62.3333 224.422 64.3698C222.526 66.4636 220.01 67.5052 216.875 67.5052C213.844 67.5052 211.438 66.5 209.641 64.4948C207.849 62.4896 206.953 59.9583 206.953 56.9063C206.953 53.7083 207.875 51.0938 209.729 49.0625C211.578 47.0208 214.073 46.0052 217.208 46.0052C220.234 46.0052 222.672 47.0104 224.505 49.0156C226.26 50.974 227.135 53.4844 227.135 56.5677Z" fill="white"/>
<path d="M242.021 50.4583C241.568 50.375 241.088 50.3333 240.578 50.3333C238.969 50.3333 237.719 50.9427 236.844 52.1563C236.083 53.2344 235.703 54.5886 235.703 56.224V67.0417H231.125L231.161 52.9219C231.161 50.5417 231.104 48.3802 230.995 46.4271H234.984L235.151 50.375H235.271C235.755 49.0208 236.521 47.9271 237.562 47.1094C238.583 46.375 239.687 46.0052 240.875 46.0052C241.297 46.0052 241.682 46.0365 242.021 46.0886" fill="white"/>
<path d="M258.13 54.5729C258.161 53.2187 257.864 52.0417 257.245 51.0521C256.453 49.7812 255.229 49.1406 253.594 49.1406C252.099 49.1406 250.88 49.7656 249.948 51.0104C249.187 52 248.729 53.1875 248.599 54.5729H258.13ZM262.495 55.7604C262.495 56.5833 262.443 57.2708 262.333 57.8385H248.599C248.646 59.875 249.312 61.4323 250.588 62.5052C251.745 63.4687 253.245 63.9427 255.083 63.9427C257.114 63.9427 258.969 63.6198 260.64 62.9687L261.359 66.151C259.406 66.9948 257.104 67.4271 254.443 67.4271C251.25 67.4271 248.739 66.4844 246.917 64.5989C245.099 62.7239 244.182 60.1979 244.182 57.0312C244.182 53.9219 245.026 51.3333 246.729 49.2708C248.505 47.0625 250.911 45.9635 253.932 45.9635C256.901 45.9635 259.156 47.0625 260.682 49.2708C261.896 51.0208 262.495 53.1875 262.495 55.7604Z" fill="white"/>
</svg>
